<?xml version="1.0" encoding="utf-8"?>
<!-- Designed by Vexels.com - 2016 All Rights Reserved - https://vexels.com/terms-and-conditions/  -->

<svg version="1.1" id="Layer_1" xmlns="http://www.w3.org/2000/svg" xmlns:xlink="http://www.w3.org/1999/xlink" x="0px" y="0px"
	 width="200px" height="200px" viewBox="0 0 1200 1200" enable-background="new 0 0 1200 1200" xml:space="preserve">
<g>
	<path fill="#00ff00" d="M1040.423,983.251c-5.985-29.921-73.812,6-73.812,6c-19.943,2.973-47.858-22.949-47.858-22.949
		c1.977-6.988,1.977-90.776,1.977-90.776c4.003-9.961-2.99-77.799-1.977-83.782c0.983-5.99-8.006-7.991-9.992-11.984
		c-2.002-3.972-3.005-21.935-3.005-21.935c12.977-51.876-26.926-68.835-26.926-68.835c-30.918-55.854-63.835-62.841-63.835-62.841
		s0,0,0.994-3.993c1.008-3.998,1.008-7.97,1.008-7.97c-25.954,0-72.839-35.92-72.839-35.92
		c-1.991-17.957-12.956-35.895-16.933-38.916c-4.013-2.979-4.003-17.926-4.003-17.926c25.938-41.894,29.915-121.706,29.915-121.706
		c3.988-4.986,15.961-40.895,15.961-40.895c8.985-11.958,37.906-36.93,37.906-36.93c22.939,2.996,85.791-27.924,85.791-27.924
		c8.973-7.991,32.904-15.955,32.904-15.955c6.972-2.018,12.961-3.005,12.961-3.005c1.004-3.983,11.974-14.968,11.974-14.968
		c3-0.999,22.954-14.952,22.954-14.952s1.986-2.994,2.969-14.958c1.003-11.974-2.969-21.956-2.969-21.956
		c4.975,2.002,13.965-5.974,13.965-5.974c-4.004-15.961-32.926-15.961-32.926-15.961c-9.982,0-7.971,13.965-7.971,13.965
		c-20.957,6.967-20.957,42.887-20.957,42.887c-6.983,10.985-43.88,14.958-43.88,14.958c-31.912-2.989-64.843,1.991-64.843,1.991
		c-8.994,0-16.964-7.971-16.964-7.971c-9.966-29.921-37.896-34.906-37.896-34.906c6.982-6.987,10.975-31.912,10.975-31.912
		c0-2.989,6.992-19.958,6.992-19.958c12.951-26.931,9.962-65.831,9.962-65.831c-2.99-38.904-50.879-54.866-87.777-47.857
		c-36.902,6.967-38.904,75.791-38.904,75.791c-22.938,0.999,3.998,39.892,3.998,39.892c2.99,1.986,3.967,9.982-6.005,5.002
		c-9.972-4.991-50.878,26.926-50.878,26.926c-4.97,2.002-41.878,28.932-41.878,28.932c-25.943,9.968-47.878,47.847-47.878,47.847
		c-16.944,10.985-50.868,72.834-50.868,72.834c-2.001,9.977-28.916,48.866-28.916,48.866c-12.01,9.936,1.014,76.847,1.014,76.847
		c2.001,10.964-3,26.957-3,26.957c-21.925,17.932,6,45.861,6,45.861c4.991-2.002,23.931,11.953,23.931,11.953
		c-23.931,9.982-61.847,118.721-71.819,136.678c-9.977,17.943-22.943,24.94-22.943,24.94c-22.939-25.954-82.786,4.971-82.786,4.971
		c-19.949-47.869-46.88-5.969-46.88-5.969c-6,13.964-40.901,41.894-40.901,41.894c-53.857,22.927-43.875,61.842-43.875,61.842
		c7.96,65.815,37.897,29.921,37.897,29.921c7.975-13.953,38.904-33.918,38.904-33.918c9.952-6.983,20.937-11.968,20.937-11.968
		c5.989-6.972,12.956-11.958,12.956-11.958c7.991,7.966,44.889,10.97,44.889,10.97c3.999,0.988,18.971,7.966,18.971,7.966
		c6.993-4.981,18.951,2.989,18.951,2.989c16.954,10.981,34.906,2.99,34.906,2.99c30.914-2.99,30.914-22.934,40.906-27.92
		c9.957-4.986,46.87-34.917,46.87-34.917l9.972-3.998c6.972-13.965,37.897-30.919,37.897-30.919
		c9.982-4.965,41.899-25.932,41.899-25.932c4.966-1.997,43.896-18.94,43.896-18.94c36.903,27.935,159.569,63.835,159.569,63.835
		c7.019-1.003,52.89,28.922,52.89,28.922c0,2.99-0.998,24.936-0.998,24.936c-7.991,7.986-2.002,16.953-2.002,16.953
		s12.966-17.931,3,0c-9.982,17.953,13.955,71.831,13.955,71.831c12.972,12.956,24.929,135.654,24.929,135.654s5.002-56.862,0,3.988
		c-4.966,60.855,25.948,55.849,25.948,55.849s0,0,4.981,6.992c4.991,6.993,34.917-18.946,34.917-18.946l21.945-11.973
		c9.972-6.01,58.843-15.971,58.843-15.971C1048.398,1018.152,1040.423,983.251,1040.423,983.251z M533.717,499.483
		c-7.981-2.002-33.919,21.94-33.919,21.94c1.014-8.958-15.955-24.93-17.947-35.916c-2.002-10.964,15.961-73.801,15.961-73.801
		c4.991-1.99,10.965-6.972,10.965-6.972c-13.97,76.806,27.955,82.764,27.955,82.764C543.698,489.5,541.702,501.5,533.717,499.483z"
		/>
	<path fill="#ff0000" d="M751.136,986.405c-45.167,0-81.792,36.634-81.792,81.803c0,45.173,36.625,81.792,81.792,81.792
		c45.194,0,81.797-36.619,81.797-81.792C832.933,1023.04,796.33,986.405,751.136,986.405z"/>
</g>
</svg>
